# xmcd
#
# Track frame offsets:
#	150
#	2328
#	9962
#	12925
#	17379
#	29309
#	32279
#	40482
#	49008
#	55758
#	61765
#	71361
#	83261
#	87259
#	94348
#	101414
#	109583
#	114344
#	120086
#	123904
#	132904
#	139113
#	150549
#	157619
#	165873
#	171706
#	181224
#	187912
#	192363
#	194766
#	211086
#	214651
#	222998
#	237883
#	238935
#
# Disc length: 3397 seconds
#
# Revision: 2
# Processed by: cddbd v1.5.2PL0 Copyright (c) Steve Scherf et al.
# Submitted via: EZCDAudioConverter 2.1.7.1
#
DISCID=ad0d4323
DTITLE=Franco Godi - Signor Rossi
DYEAR=1900
DGENRE=
TTITLE0=Signor Rossi Intro
TTITLE1=Herr Rossi Sucht Das Glück
TTITLE2=Rossi Easy Background
TTITLE3=Parapapa 'Perepepe'
TTITLE4=Sicura E Trac (Parts 1-3) [German/Italian Version]
TTITLE5=Bim Bum Bam Patabum
TTITLE6=Qua Qua Qua
TTITLE7=Tutankamen Cha Cha Cha
TTITLE8=Wild Wild West
TTITLE9=Viva Happiness
TTITLE10=La Canzone Di Merlotto
TTITLE11=Bu Bu Buana Bu
TTITLE12=Krimi Slop
TTITLE13=Gatto Blues
TTITLE14=Vita Da Can
TTITLE15=Rossi-Polka
TTITLE16=Signor Rossi Chac Chac Chac
TTITLE17=Doctor Frankenstein
TTITLE18=Arabia
TTITLE19=Salamek Zumpalla
TTITLE20=W La Felictà [Alternate Dialogue Take]
TTITLE21=Ogni Estate Za Za Za
TTITLE22=Fish Song
TTITLE23=Qua Qua Qua [Instrumental]
TTITLE24=Marcia Della Fattoria
TTITLE25=Spooky Twist
TTITLE26=L'Allero
TTITLE27=Hills and Guitars
TTITLE28=Ol'Man Rossi
TTITLE29=W La Felictà [Long Version]
TTITLE30=Sicura E Track [Vocal]
TTITLE31=Qua Qua Qua [Vocal]
TTITLE32=W La Felictà [Vocal]
TTITLE33=Ciao Rossi
TTITLE34=W La Felictà [Instrumental]
EXTD=
EXTT0=
EXTT1=
EXTT2=
EXTT3=
EXTT4=
EXTT5=
EXTT6=
EXTT7=
EXTT8=
EXTT9=
EXTT10=
EXTT11=
EXTT12=
EXTT13=
EXTT14=
EXTT15=
EXTT16=
EXTT17=
EXTT18=
EXTT19=
EXTT20=
EXTT21=
EXTT22=
EXTT23=
EXTT24=
EXTT25=
EXTT26=
EXTT27=
EXTT28=
EXTT29=
EXTT30=
EXTT31=
EXTT32=
EXTT33=
EXTT34=
PLAYORDER=
